<svg xmlns="http://www.w3.org/2000/svg"  width="24px" height="24px" viewBox="0 0 24 24" version="1.1">
<g ifill-rule="evenodd" d="surface1">
<path style=" stroke:none;fill-rule:nonzero;fill:rgb(73.72549%,49.803922%,87.843137%);fill-opacity:1;" fill-rule="evenodd"  d="M 4.410156 16.867188 C 4.496094 16.867188 4.496094 16.867188 4.585938 16.867188 C 4.648438 16.867188 4.710938 16.867188 4.777344 16.867188 C 4.84375 16.867188 4.910156 16.867188 4.980469 16.867188 C 5.164062 16.867188 5.351562 16.867188 5.539062 16.867188 C 5.738281 16.867188 5.941406 16.867188 6.140625 16.867188 C 6.628906 16.863281 7.113281 16.863281 7.597656 16.863281 C 7.828125 16.863281 8.054688 16.863281 8.285156 16.863281 C 9.046875 16.863281 9.804688 16.863281 10.566406 16.863281 C 10.765625 16.863281 10.960938 16.859375 11.160156 16.859375 C 11.207031 16.859375 11.257812 16.859375 11.308594 16.859375 C 12.101562 16.859375 12.894531 16.859375 13.691406 16.859375 C 14.507812 16.855469 15.320312 16.855469 16.136719 16.855469 C 16.597656 16.855469 17.054688 16.855469 17.511719 16.855469 C 17.902344 16.851562 18.292969 16.851562 18.683594 16.851562 C 18.882812 16.851562 19.078125 16.851562 19.277344 16.851562 C 19.460938 16.851562 19.644531 16.851562 19.824219 16.851562 C 19.890625 16.851562 19.957031 16.851562 20.023438 16.851562 C 20.628906 16.847656 21.160156 16.929688 21.605469 17.367188 C 21.839844 17.644531 21.988281 17.96875 21.992188 18.335938 C 21.992188 18.394531 21.992188 18.394531 21.992188 18.453125 C 21.992188 18.496094 21.992188 18.535156 21.992188 18.578125 C 21.992188 18.625 21.992188 18.667969 21.992188 18.714844 C 21.996094 18.863281 21.996094 19.007812 21.996094 19.15625 C 21.996094 19.207031 21.996094 19.257812 21.996094 19.308594 C 21.996094 19.574219 21.996094 19.84375 22 20.109375 C 22 20.382812 22 20.660156 22.003906 20.933594 C 22.003906 21.144531 22.003906 21.355469 22.003906 21.570312 C 22.003906 21.671875 22.003906 21.773438 22.003906 21.871094 C 22.015625 23.117188 22.015625 23.117188 21.527344 23.628906 C 21.222656 23.894531 20.925781 24.003906 20.527344 24.007812 C 20.46875 24.007812 20.410156 24.007812 20.347656 24.007812 C 20.28125 24.007812 20.21875 24.007812 20.152344 24.007812 C 20.082031 24.007812 20.011719 24.007812 19.945312 24.007812 C 19.753906 24.007812 19.5625 24.007812 19.371094 24.007812 C 19.164062 24.007812 18.957031 24.007812 18.753906 24.007812 C 18.253906 24.011719 17.757812 24.011719 17.257812 24.011719 C 17.023438 24.011719 16.789062 24.011719 16.554688 24.011719 C 15.777344 24.011719 14.996094 24.011719 14.21875 24.011719 C 14.015625 24.011719 13.8125 24.015625 13.613281 24.015625 C 13.535156 24.015625 13.535156 24.015625 13.460938 24.015625 C 12.644531 24.015625 11.832031 24.015625 11.015625 24.015625 C 10.179688 24.019531 9.34375 24.019531 8.507812 24.019531 C 8.039062 24.019531 7.570312 24.019531 7.101562 24.019531 C 6.703125 24.023438 6.300781 24.023438 5.902344 24.023438 C 5.699219 24.023438 5.496094 24.023438 5.289062 24.023438 C 5.105469 24.023438 4.917969 24.023438 4.730469 24.023438 C 4.664062 24.023438 4.597656 24.023438 4.527344 24.023438 C 4.148438 24.027344 3.847656 24.007812 3.515625 23.8125 C 3.484375 23.792969 3.453125 23.777344 3.421875 23.757812 C 3.113281 23.570312 2.925781 23.265625 2.828125 22.921875 C 2.726562 22.492188 2.746094 22.058594 2.75 21.621094 C 2.75 21.527344 2.75 21.433594 2.75 21.339844 C 2.75 21.144531 2.75 20.949219 2.75 20.753906 C 2.75 20.503906 2.75 20.253906 2.75 20.007812 C 2.75 19.8125 2.75 19.621094 2.75 19.425781 C 2.75 19.335938 2.75 19.242188 2.75 19.152344 C 2.75 19.023438 2.753906 18.894531 2.753906 18.765625 C 2.753906 18.726562 2.753906 18.6875 2.753906 18.652344 C 2.757812 18.132812 2.867188 17.695312 3.21875 17.304688 C 3.554688 16.992188 3.957031 16.871094 4.410156 16.867188 Z M 4.410156 16.867188 "/>
<path style=" stroke:none;fill-rule:nonzero;fill:rgb(99.607843%,87.843137%,46.666667%);fill-opacity:1;" fill-rule="evenodd"  d="M 6.339844 8.425781 C 6.398438 8.425781 6.457031 8.425781 6.519531 8.425781 C 6.582031 8.425781 6.648438 8.425781 6.710938 8.425781 C 6.78125 8.425781 6.851562 8.425781 6.917969 8.425781 C 7.109375 8.421875 7.296875 8.421875 7.488281 8.425781 C 7.691406 8.425781 7.894531 8.421875 8.097656 8.421875 C 8.5 8.421875 8.898438 8.421875 9.296875 8.421875 C 9.625 8.421875 9.949219 8.421875 10.273438 8.421875 C 11.195312 8.421875 12.117188 8.421875 13.039062 8.421875 C 13.089844 8.421875 13.136719 8.421875 13.191406 8.421875 C 13.238281 8.421875 13.289062 8.421875 13.339844 8.421875 C 14.144531 8.421875 14.953125 8.417969 15.757812 8.417969 C 16.585938 8.417969 17.414062 8.414062 18.242188 8.417969 C 18.707031 8.417969 19.171875 8.414062 19.636719 8.414062 C 20.03125 8.414062 20.425781 8.414062 20.824219 8.414062 C 21.023438 8.414062 21.226562 8.414062 21.429688 8.414062 C 21.613281 8.414062 21.796875 8.414062 21.984375 8.414062 C 22.050781 8.414062 22.117188 8.414062 22.183594 8.414062 C 22.753906 8.410156 23.207031 8.492188 23.628906 8.894531 C 23.863281 9.164062 24.003906 9.453125 24.007812 9.808594 C 24.007812 9.871094 24.007812 9.871094 24.007812 9.929688 C 24.007812 9.972656 24.007812 10.015625 24.007812 10.0625 C 24.007812 10.109375 24.007812 10.152344 24.007812 10.203125 C 24.011719 10.351562 24.011719 10.503906 24.011719 10.65625 C 24.011719 10.710938 24.011719 10.761719 24.011719 10.816406 C 24.011719 11.089844 24.011719 11.367188 24.015625 11.640625 C 24.015625 11.925781 24.015625 12.207031 24.019531 12.492188 C 24.019531 12.710938 24.019531 12.929688 24.019531 13.148438 C 24.019531 13.253906 24.019531 13.355469 24.019531 13.460938 C 24.023438 13.609375 24.023438 13.753906 24.023438 13.902344 C 24.023438 13.964844 24.023438 13.964844 24.023438 14.03125 C 24.019531 14.492188 23.859375 14.855469 23.542969 15.1875 C 23.238281 15.453125 22.898438 15.566406 22.5 15.570312 C 22.441406 15.570312 22.382812 15.570312 22.320312 15.570312 C 22.257812 15.570312 22.191406 15.570312 22.125 15.570312 C 22.058594 15.570312 21.988281 15.570312 21.921875 15.570312 C 21.730469 15.570312 21.542969 15.570312 21.351562 15.570312 C 21.148438 15.570312 20.941406 15.570312 20.738281 15.570312 C 20.246094 15.574219 19.753906 15.574219 19.257812 15.574219 C 19.027344 15.574219 18.792969 15.574219 18.5625 15.574219 C 17.789062 15.574219 17.015625 15.574219 16.246094 15.574219 C 16.042969 15.574219 15.84375 15.578125 15.644531 15.578125 C 15.570312 15.578125 15.570312 15.578125 15.492188 15.578125 C 14.683594 15.578125 13.878906 15.578125 13.070312 15.578125 C 12.242188 15.582031 11.414062 15.582031 10.585938 15.582031 C 10.121094 15.582031 9.65625 15.582031 9.191406 15.582031 C 8.792969 15.585938 8.398438 15.585938 8 15.585938 C 7.800781 15.585938 7.597656 15.585938 7.394531 15.585938 C 7.210938 15.585938 7.023438 15.585938 6.839844 15.585938 C 6.773438 15.585938 6.707031 15.585938 6.640625 15.585938 C 6.074219 15.589844 5.625 15.488281 5.203125 15.09375 C 4.882812 14.746094 4.808594 14.332031 4.808594 13.871094 C 4.808594 13.828125 4.808594 13.78125 4.808594 13.738281 C 4.808594 13.589844 4.808594 13.441406 4.808594 13.292969 C 4.808594 13.191406 4.808594 13.085938 4.808594 12.984375 C 4.804688 12.765625 4.808594 12.550781 4.808594 12.335938 C 4.808594 12.058594 4.808594 11.78125 4.804688 11.507812 C 4.804688 11.292969 4.804688 11.078125 4.804688 10.867188 C 4.804688 10.765625 4.804688 10.664062 4.804688 10.5625 C 4.804688 10.417969 4.804688 10.277344 4.804688 10.132812 C 4.804688 10.089844 4.804688 10.050781 4.804688 10.007812 C 4.808594 9.558594 4.976562 9.128906 5.296875 8.8125 C 5.621094 8.574219 5.9375 8.425781 6.339844 8.425781 Z M 6.339844 8.425781 "/>
<path style=" stroke:none;fill-rule:nonzero;fill:rgb(59.215686%,85.490196%,48.235294%);fill-opacity:1;" fill-rule="evenodd"  d="M 1.421875 -0.0117188 C 1.511719 -0.0117188 1.511719 -0.0117188 1.601562 -0.0117188 C 1.664062 -0.0117188 1.730469 -0.0117188 1.796875 -0.0117188 C 1.867188 -0.0117188 1.933594 -0.0117188 2.003906 -0.0117188 C 2.195312 -0.015625 2.386719 -0.015625 2.578125 -0.0117188 C 2.785156 -0.0117188 2.988281 -0.015625 3.195312 -0.015625 C 3.597656 -0.015625 4 -0.015625 4.40625 -0.015625 C 4.734375 -0.015625 5.0625 -0.015625 5.390625 -0.015625 C 6.320312 -0.015625 7.25 -0.015625 8.179688 -0.015625 C 8.226562 -0.015625 8.277344 -0.015625 8.332031 -0.015625 C 8.40625 -0.015625 8.40625 -0.015625 8.480469 -0.015625 C 9.296875 -0.015625 10.109375 -0.0195312 10.921875 -0.0195312 C 11.757812 -0.0195312 12.59375 -0.0234375 13.425781 -0.0195312 C 13.894531 -0.0195312 14.363281 -0.0234375 14.832031 -0.0234375 C 15.234375 -0.0234375 15.632812 -0.0234375 16.03125 -0.0234375 C 16.234375 -0.0234375 16.4375 -0.0234375 16.640625 -0.0234375 C 16.828125 -0.0234375 17.015625 -0.0234375 17.203125 -0.0234375 C 17.269531 -0.0234375 17.335938 -0.0234375 17.402344 -0.0234375 C 17.96875 -0.0273438 18.382812 0.0625 18.796875 0.457031 C 19.03125 0.726562 19.175781 1.054688 19.179688 1.414062 C 19.179688 1.453125 19.179688 1.492188 19.179688 1.535156 C 19.179688 1.597656 19.179688 1.597656 19.179688 1.660156 C 19.179688 1.707031 19.183594 1.75 19.183594 1.796875 C 19.183594 1.945312 19.183594 2.09375 19.183594 2.242188 C 19.183594 2.292969 19.183594 2.34375 19.183594 2.398438 C 19.1875 2.667969 19.1875 2.933594 19.1875 3.203125 C 19.1875 3.425781 19.191406 3.648438 19.191406 3.871094 C 19.195312 4.140625 19.195312 4.410156 19.195312 4.679688 C 19.195312 4.78125 19.195312 4.882812 19.199219 4.984375 C 19.210938 6.179688 19.210938 6.179688 18.757812 6.679688 C 18.285156 7.105469 17.757812 7.140625 17.144531 7.136719 C 17.074219 7.136719 17.007812 7.136719 16.941406 7.136719 C 16.753906 7.136719 16.566406 7.136719 16.382812 7.136719 C 16.179688 7.136719 15.976562 7.136719 15.777344 7.136719 C 15.382812 7.140625 14.988281 7.140625 14.59375 7.140625 C 14.273438 7.140625 13.953125 7.140625 13.632812 7.140625 C 13.566406 7.140625 13.566406 7.140625 13.496094 7.140625 C 13.402344 7.140625 13.3125 7.140625 13.21875 7.140625 C 12.347656 7.140625 11.480469 7.140625 10.613281 7.140625 C 9.816406 7.140625 9.023438 7.140625 8.230469 7.140625 C 7.414062 7.140625 6.597656 7.140625 5.78125 7.140625 C 5.324219 7.140625 4.863281 7.140625 4.40625 7.144531 C 4.015625 7.144531 3.625 7.144531 3.238281 7.144531 C 3.039062 7.140625 2.839844 7.140625 2.640625 7.144531 C 2.457031 7.144531 2.277344 7.144531 2.09375 7.144531 C 2.027344 7.144531 1.960938 7.144531 1.894531 7.144531 C 1.332031 7.144531 0.863281 7.074219 0.421875 6.703125 C 0.078125 6.339844 -0.0195312 5.960938 -0.0195312 5.472656 C -0.0195312 5.425781 -0.0195312 5.382812 -0.0195312 5.332031 C -0.0195312 5.179688 -0.0195312 5.027344 -0.0195312 4.875 C -0.0195312 4.769531 -0.0195312 4.660156 -0.0195312 4.554688 C -0.0234375 4.332031 -0.0195312 4.109375 -0.0195312 3.886719 C -0.0195312 3.601562 -0.0195312 3.3125 -0.0234375 3.027344 C -0.0234375 2.808594 -0.0234375 2.589844 -0.0234375 2.367188 C -0.0234375 2.261719 -0.0234375 2.15625 -0.0234375 2.050781 C -0.0234375 1.90625 -0.0234375 1.757812 -0.0234375 1.609375 C -0.0234375 1.566406 -0.0234375 1.523438 -0.0234375 1.480469 C -0.0195312 1.046875 0.136719 0.726562 0.429688 0.410156 C 0.722656 0.128906 1.003906 -0.0117188 1.421875 -0.0117188 Z M 1.421875 -0.0117188 "/>
<path style=" stroke:none;fill-rule:nonzero;fill:rgb(0%,44.313725%,59.215686%);fill-opacity:1;" fill-rule="evenodd"  d="M 2.242188 8.652344 C 2.28125 8.648438 2.320312 8.648438 2.363281 8.644531 C 2.542969 8.683594 2.601562 8.765625 2.71875 8.90625 C 2.785156 9.042969 2.832031 9.179688 2.875 9.324219 C 2.890625 9.363281 2.90625 9.402344 2.917969 9.445312 C 2.960938 9.574219 3.003906 9.707031 3.046875 9.835938 C 3.074219 9.921875 3.105469 10.003906 3.132812 10.089844 C 3.203125 10.296875 3.269531 10.503906 3.335938 10.710938 C 3.375 10.824219 3.410156 10.933594 3.449219 11.042969 C 3.472656 11.109375 3.492188 11.175781 3.515625 11.242188 C 3.535156 11.296875 3.554688 11.355469 3.574219 11.414062 C 3.617188 11.617188 3.605469 11.75 3.5625 11.953125 C 3.414062 12.125 3.332031 12.179688 3.105469 12.207031 C 2.953125 12.199219 2.808594 12.167969 2.660156 12.140625 C 2.617188 12.128906 2.574219 12.121094 2.53125 12.113281 C 2.484375 12.105469 2.484375 12.105469 2.4375 12.09375 C 2.460938 13.292969 2.515625 14.476562 2.914062 15.621094 C 2.988281 15.867188 2.984375 16.085938 2.898438 16.328125 C 2.742188 16.554688 2.566406 16.675781 2.296875 16.734375 C 2.03125 16.738281 1.839844 16.679688 1.640625 16.5 C 1.480469 16.246094 1.394531 15.964844 1.3125 15.675781 C 1.300781 15.632812 1.289062 15.59375 1.277344 15.550781 C 1.027344 14.640625 0.929688 13.730469 0.929688 12.792969 C 0.933594 12.675781 0.929688 12.558594 0.929688 12.441406 C 0.929688 12.367188 0.929688 12.292969 0.929688 12.21875 C 0.929688 12.183594 0.929688 12.148438 0.929688 12.113281 C 0.933594 11.871094 0.933594 11.871094 0.984375 11.765625 C 0.9375 11.757812 0.886719 11.75 0.839844 11.742188 C 0.773438 11.730469 0.710938 11.71875 0.648438 11.707031 C 0.617188 11.703125 0.585938 11.695312 0.550781 11.691406 C 0.335938 11.652344 0.203125 11.589844 0.046875 11.4375 C -0.0390625 11.265625 -0.0390625 11.105469 0 10.921875 C 0.117188 10.730469 0.269531 10.570312 0.421875 10.40625 C 0.476562 10.347656 0.53125 10.289062 0.585938 10.230469 C 0.699219 10.109375 0.8125 9.984375 0.925781 9.863281 C 1.0625 9.71875 1.195312 9.574219 1.324219 9.425781 C 1.4375 9.289062 1.558594 9.160156 1.679688 9.03125 C 1.703125 9.003906 1.722656 8.980469 1.746094 8.953125 C 2.019531 8.65625 2.019531 8.65625 2.242188 8.652344 Z M 2.242188 8.652344 "/>
<path style=" stroke:none;fill-rule:nonzero;fill:rgb(68.627451%,40%,85.490196%);fill-opacity:1;" fill-rule="evenodd"  d="M 18.421875 16.875 C 18.722656 16.871094 19.027344 16.867188 19.328125 16.863281 C 19.433594 16.863281 19.535156 16.863281 19.636719 16.859375 C 21.054688 16.839844 21.054688 16.839844 21.492188 17.257812 C 21.757812 17.519531 21.964844 17.855469 21.992188 18.234375 C 21.992188 18.269531 21.992188 18.300781 21.992188 18.335938 C 21.992188 18.375 21.992188 18.414062 21.992188 18.453125 C 21.992188 18.496094 21.992188 18.535156 21.992188 18.578125 C 21.992188 18.625 21.992188 18.667969 21.992188 18.714844 C 21.996094 18.863281 21.996094 19.007812 21.996094 19.15625 C 21.996094 19.207031 21.996094 19.257812 21.996094 19.308594 C 21.996094 19.574219 21.996094 19.84375 22 20.109375 C 22 20.382812 22 20.660156 22.003906 20.933594 C 22.003906 21.144531 22.003906 21.355469 22.003906 21.570312 C 22.003906 21.671875 22.003906 21.773438 22.003906 21.871094 C 22.015625 23.117188 22.015625 23.117188 21.527344 23.628906 C 21.253906 23.867188 20.960938 24.007812 20.597656 24.003906 C 20.554688 24.003906 20.511719 24.003906 20.46875 24.003906 C 20.425781 24.003906 20.378906 24.003906 20.332031 24.003906 C 20.285156 24.003906 20.238281 24.003906 20.191406 24.003906 C 20.042969 24.003906 19.894531 24.003906 19.746094 24.003906 C 19.644531 24.003906 19.542969 24.003906 19.445312 24.003906 C 19.195312 24 18.949219 24 18.703125 24 C 18.824219 23.917969 18.929688 23.867188 19.0625 23.808594 C 19.472656 23.605469 19.683594 23.3125 19.835938 22.886719 C 19.902344 22.632812 19.902344 22.382812 19.898438 22.121094 C 19.898438 22.023438 19.898438 21.921875 19.898438 21.824219 C 19.902344 21.648438 19.902344 21.472656 19.902344 21.296875 C 19.902344 21.015625 19.902344 20.734375 19.902344 20.453125 C 19.90625 20.355469 19.902344 20.257812 19.902344 20.160156 C 19.902344 20.101562 19.902344 20.042969 19.90625 19.980469 C 19.90625 19.929688 19.90625 19.875 19.90625 19.820312 C 19.925781 19.671875 19.96875 19.613281 20.0625 19.5 C 20.074219 19.339844 20.066406 19.230469 20.015625 19.078125 C 19.984375 19.078125 19.953125 19.078125 19.921875 19.078125 C 19.921875 19.015625 19.921875 18.957031 19.917969 18.894531 C 19.90625 18.300781 19.859375 17.808594 19.453125 17.34375 C 19.148438 17.074219 18.816406 16.992188 18.421875 16.921875 C 18.421875 16.90625 18.421875 16.890625 18.421875 16.875 Z M 18.421875 16.875 "/>
<path style=" stroke:none;fill-rule:nonzero;fill:rgb(50.196078%,82.352941%,38.039216%);fill-opacity:1;" fill-rule="evenodd"  d="M 15.796875 0 C 16.101562 -0.00390625 16.40625 -0.0078125 16.710938 -0.0117188 C 16.816406 -0.0117188 16.917969 -0.0117188 17.023438 -0.015625 C 17.171875 -0.015625 17.324219 -0.015625 17.472656 -0.0195312 C 17.539062 -0.0195312 17.539062 -0.0195312 17.609375 -0.0195312 C 18.085938 -0.0195312 18.453125 0.128906 18.796875 0.457031 C 19.03125 0.726562 19.175781 1.054688 19.179688 1.414062 C 19.179688 1.453125 19.179688 1.492188 19.179688 1.535156 C 19.179688 1.574219 19.179688 1.617188 19.179688 1.660156 C 19.179688 1.730469 19.179688 1.730469 19.183594 1.796875 C 19.183594 1.945312 19.183594 2.09375 19.183594 2.242188 C 19.183594 2.292969 19.183594 2.34375 19.183594 2.398438 C 19.1875 2.667969 19.1875 2.933594 19.1875 3.203125 C 19.1875 3.425781 19.191406 3.648438 19.191406 3.871094 C 19.195312 4.140625 19.195312 4.410156 19.195312 4.679688 C 19.195312 4.78125 19.195312 4.882812 19.199219 4.984375 C 19.210938 6.179688 19.210938 6.179688 18.757812 6.679688 C 18.335938 7.0625 17.859375 7.140625 17.304688 7.132812 C 17.257812 7.132812 17.210938 7.132812 17.160156 7.132812 C 17.011719 7.132812 16.859375 7.132812 16.710938 7.132812 C 16.609375 7.128906 16.507812 7.128906 16.40625 7.128906 C 16.15625 7.128906 15.90625 7.128906 15.65625 7.125 C 15.792969 7.054688 15.914062 7.011719 16.0625 6.976562 C 16.394531 6.875 16.636719 6.71875 16.820312 6.421875 C 16.96875 6.128906 17.066406 5.894531 17.070312 5.5625 C 17.070312 5.46875 17.070312 5.46875 17.070312 5.375 C 17.070312 5.34375 17.070312 5.3125 17.070312 5.277344 C 17.074219 5.175781 17.074219 5.070312 17.074219 4.96875 C 17.078125 4.675781 17.078125 4.386719 17.082031 4.09375 C 17.082031 3.914062 17.082031 3.738281 17.085938 3.558594 C 17.085938 3.488281 17.085938 3.421875 17.085938 3.355469 C 17.085938 3.257812 17.089844 3.164062 17.089844 3.070312 C 17.089844 3.015625 17.089844 2.960938 17.089844 2.90625 C 17.109375 2.75 17.152344 2.695312 17.25 2.578125 C 17.273438 2.433594 17.273438 2.433594 17.25 2.296875 C 17.226562 2.273438 17.203125 2.253906 17.179688 2.230469 C 17.054688 2.101562 17.085938 1.917969 17.082031 1.75 C 17.070312 1.253906 17 0.839844 16.648438 0.472656 C 16.390625 0.234375 16.144531 0.101562 15.796875 0.046875 C 15.796875 0.03125 15.796875 0.015625 15.796875 0 Z M 15.796875 0 "/>
<path style=" stroke:none;fill-rule:nonzero;fill:rgb(99.215686%,80.784314%,51.764706%);fill-opacity:1;" fill-rule="evenodd"  d="M 20.671875 8.4375 C 20.960938 8.433594 21.253906 8.429688 21.542969 8.425781 C 21.644531 8.425781 21.742188 8.425781 21.839844 8.421875 C 23.113281 8.402344 23.113281 8.402344 23.628906 8.894531 C 23.863281 9.164062 24.003906 9.453125 24.007812 9.808594 C 24.007812 9.851562 24.007812 9.890625 24.007812 9.929688 C 24.007812 9.972656 24.007812 10.015625 24.007812 10.0625 C 24.007812 10.109375 24.007812 10.152344 24.007812 10.203125 C 24.011719 10.351562 24.011719 10.503906 24.011719 10.65625 C 24.011719 10.710938 24.011719 10.761719 24.011719 10.816406 C 24.011719 11.089844 24.011719 11.367188 24.015625 11.640625 C 24.015625 11.925781 24.015625 12.207031 24.019531 12.492188 C 24.019531 12.710938 24.019531 12.929688 24.019531 13.148438 C 24.019531 13.253906 24.019531 13.355469 24.019531 13.460938 C 24.023438 13.609375 24.023438 13.753906 24.023438 13.902344 C 24.023438 13.945312 24.023438 13.988281 24.023438 14.03125 C 24.019531 14.492188 23.859375 14.855469 23.542969 15.1875 C 23.265625 15.429688 22.933594 15.570312 22.5625 15.566406 C 22.519531 15.566406 22.476562 15.566406 22.429688 15.566406 C 22.386719 15.566406 22.339844 15.566406 22.292969 15.566406 C 22.242188 15.566406 22.195312 15.566406 22.148438 15.566406 C 21.996094 15.566406 21.84375 15.566406 21.691406 15.566406 C 21.589844 15.566406 21.484375 15.566406 21.382812 15.566406 C 21.128906 15.5625 20.878906 15.5625 20.625 15.5625 C 20.753906 15.476562 20.8125 15.453125 20.957031 15.417969 C 21.328125 15.296875 21.601562 15.03125 21.777344 14.6875 C 21.929688 14.347656 21.921875 14.011719 21.917969 13.648438 C 21.917969 13.578125 21.917969 13.507812 21.921875 13.4375 C 21.921875 13.253906 21.921875 13.070312 21.921875 12.886719 C 21.917969 12.589844 21.917969 12.296875 21.921875 12 C 21.921875 11.898438 21.921875 11.792969 21.921875 11.691406 C 21.921875 11.628906 21.921875 11.566406 21.921875 11.503906 C 21.921875 11.421875 21.921875 11.421875 21.921875 11.335938 C 21.941406 11.1875 21.96875 11.160156 22.078125 11.0625 C 22.101562 10.902344 22.101562 10.902344 22.078125 10.734375 C 22.054688 10.707031 22.03125 10.683594 22.007812 10.65625 C 21.898438 10.488281 21.917969 10.316406 21.917969 10.117188 C 21.898438 9.570312 21.78125 9.199219 21.375 8.8125 C 21.160156 8.640625 20.933594 8.5625 20.671875 8.484375 C 20.671875 8.46875 20.671875 8.453125 20.671875 8.4375 Z M 20.671875 8.4375 "/>
<path style=" stroke:none;fill-rule:nonzero;fill:rgb(90.980392%,94.509804%,99.215686%);fill-opacity:1;" fill-rule="evenodd"  d="M 9.980469 18.957031 C 10.019531 18.957031 10.0625 18.953125 10.105469 18.953125 C 10.246094 18.953125 10.386719 18.957031 10.527344 18.957031 C 10.628906 18.957031 10.730469 18.957031 10.832031 18.957031 C 11.105469 18.957031 11.378906 18.957031 11.652344 18.957031 C 11.941406 18.957031 12.226562 18.957031 12.511719 18.957031 C 12.992188 18.957031 13.476562 18.960938 13.957031 18.960938 C 14.511719 18.964844 15.070312 18.964844 15.625 18.964844 C 16.21875 18.964844 16.808594 18.964844 17.402344 18.964844 C 17.574219 18.96875 17.742188 18.96875 17.914062 18.96875 C 18.183594 18.96875 18.449219 18.96875 18.71875 18.96875 C 18.816406 18.96875 18.917969 18.96875 19.015625 18.96875 C 19.148438 18.96875 19.28125 18.972656 19.417969 18.972656 C 19.457031 18.972656 19.496094 18.972656 19.535156 18.972656 C 19.875 18.972656 19.875 18.972656 20.015625 19.078125 C 20.125 19.242188 20.136719 19.304688 20.109375 19.5 C 20.015625 19.625 19.941406 19.71875 19.785156 19.757812 C 19.675781 19.765625 19.566406 19.765625 19.457031 19.765625 C 19.414062 19.765625 19.371094 19.765625 19.328125 19.765625 C 19.1875 19.765625 19.046875 19.765625 18.90625 19.765625 C 18.804688 19.765625 18.703125 19.765625 18.601562 19.765625 C 18.328125 19.765625 18.050781 19.765625 17.777344 19.765625 C 17.488281 19.765625 17.203125 19.765625 16.914062 19.765625 C 16.429688 19.765625 15.949219 19.765625 15.464844 19.765625 C 14.90625 19.761719 14.347656 19.765625 13.789062 19.765625 C 13.308594 19.765625 12.828125 19.765625 12.347656 19.765625 C 12.0625 19.765625 11.777344 19.765625 11.488281 19.765625 C 11.21875 19.765625 10.953125 19.765625 10.683594 19.765625 C 10.582031 19.765625 10.484375 19.765625 10.386719 19.765625 C 10.25 19.765625 10.117188 19.765625 9.980469 19.765625 C 9.941406 19.765625 9.902344 19.765625 9.863281 19.765625 C 9.660156 19.761719 9.585938 19.75 9.421875 19.625 C 9.328125 19.5 9.328125 19.5 9.300781 19.359375 C 9.378906 18.980469 9.652344 18.949219 9.980469 18.957031 Z M 9.980469 18.957031 "/>
<path style=" stroke:none;fill-rule:nonzero;fill:rgb(91.372549%,96.078431%,99.607843%);fill-opacity:1;" fill-rule="evenodd"  d="M 7.121094 2.085938 C 7.183594 2.085938 7.183594 2.085938 7.25 2.085938 C 7.390625 2.082031 7.535156 2.085938 7.675781 2.085938 C 7.777344 2.085938 7.882812 2.085938 7.984375 2.085938 C 8.261719 2.082031 8.539062 2.082031 8.816406 2.085938 C 9.109375 2.085938 9.398438 2.085938 9.6875 2.082031 C 10.207031 2.082031 10.726562 2.085938 11.246094 2.085938 C 11.71875 2.085938 12.1875 2.085938 12.660156 2.085938 C 13.207031 2.082031 13.753906 2.082031 14.300781 2.085938 C 14.589844 2.085938 14.878906 2.085938 15.167969 2.082031 C 15.441406 2.082031 15.710938 2.082031 15.984375 2.085938 C 16.085938 2.085938 16.183594 2.085938 16.285156 2.085938 C 16.421875 2.085938 16.558594 2.085938 16.691406 2.085938 C 16.734375 2.085938 16.773438 2.085938 16.8125 2.085938 C 16.984375 2.085938 17.085938 2.09375 17.226562 2.195312 C 17.324219 2.335938 17.328125 2.410156 17.296875 2.578125 C 17.203125 2.703125 17.128906 2.796875 16.972656 2.835938 C 16.863281 2.84375 16.753906 2.84375 16.644531 2.84375 C 16.601562 2.84375 16.558594 2.84375 16.515625 2.84375 C 16.375 2.84375 16.234375 2.84375 16.09375 2.84375 C 15.992188 2.84375 15.890625 2.84375 15.789062 2.84375 C 15.515625 2.84375 15.238281 2.84375 14.964844 2.84375 C 14.675781 2.84375 14.390625 2.84375 14.101562 2.84375 C 13.617188 2.84375 13.136719 2.84375 12.652344 2.84375 C 12.09375 2.839844 11.535156 2.84375 10.976562 2.84375 C 10.496094 2.84375 10.015625 2.84375 9.535156 2.84375 C 9.25 2.84375 8.964844 2.84375 8.675781 2.84375 C 8.40625 2.84375 8.140625 2.84375 7.871094 2.84375 C 7.769531 2.84375 7.671875 2.84375 7.574219 2.84375 C 7.4375 2.84375 7.304688 2.84375 7.167969 2.84375 C 7.128906 2.84375 7.089844 2.84375 7.050781 2.84375 C 6.847656 2.839844 6.773438 2.828125 6.609375 2.703125 C 6.515625 2.578125 6.515625 2.578125 6.488281 2.433594 C 6.554688 2.082031 6.8125 2.082031 7.121094 2.085938 Z M 7.121094 2.085938 "/>
<path style=" stroke:none;fill-rule:nonzero;fill:rgb(91.764706%,96.078431%,99.607843%);fill-opacity:1;" fill-rule="evenodd"  d="M 11.992188 10.523438 C 12.03125 10.523438 12.074219 10.523438 12.117188 10.523438 C 12.257812 10.519531 12.402344 10.523438 12.542969 10.523438 C 12.644531 10.523438 12.746094 10.523438 12.847656 10.523438 C 13.121094 10.519531 13.398438 10.519531 13.671875 10.523438 C 13.960938 10.523438 14.246094 10.523438 14.535156 10.519531 C 15.019531 10.519531 15.503906 10.523438 15.984375 10.523438 C 16.542969 10.523438 17.105469 10.523438 17.664062 10.523438 C 18.140625 10.519531 18.621094 10.519531 19.101562 10.523438 C 19.386719 10.523438 19.675781 10.523438 19.960938 10.519531 C 20.230469 10.519531 20.5 10.519531 20.769531 10.523438 C 20.871094 10.523438 20.96875 10.523438 21.066406 10.523438 C 21.203125 10.523438 21.335938 10.523438 21.472656 10.523438 C 21.511719 10.523438 21.550781 10.523438 21.589844 10.523438 C 21.777344 10.523438 21.871094 10.535156 22.03125 10.632812 C 22.125 10.734375 22.125 10.734375 22.152344 10.898438 C 22.125 11.0625 22.125 11.0625 22.054688 11.164062 C 21.886719 11.289062 21.722656 11.277344 21.519531 11.273438 C 21.457031 11.273438 21.457031 11.273438 21.390625 11.273438 C 21.25 11.273438 21.105469 11.273438 20.964844 11.273438 C 20.859375 11.273438 20.757812 11.273438 20.65625 11.273438 C 20.378906 11.273438 20.101562 11.273438 19.820312 11.273438 C 19.53125 11.273438 19.242188 11.273438 18.949219 11.273438 C 18.429688 11.273438 17.910156 11.273438 17.390625 11.273438 C 16.921875 11.269531 16.449219 11.269531 15.976562 11.269531 C 15.371094 11.273438 14.765625 11.269531 14.160156 11.269531 C 13.929688 11.269531 13.699219 11.269531 13.46875 11.269531 C 13.195312 11.269531 12.921875 11.269531 12.652344 11.269531 C 12.550781 11.269531 12.449219 11.269531 12.351562 11.269531 C 12.214844 11.269531 12.078125 11.269531 11.941406 11.269531 C 11.902344 11.269531 11.863281 11.269531 11.820312 11.269531 C 11.554688 11.265625 11.554688 11.265625 11.449219 11.191406 C 11.367188 11.078125 11.371094 10.96875 11.367188 10.828125 C 11.445312 10.511719 11.714844 10.519531 11.992188 10.523438 Z M 11.992188 10.523438 "/>
<path style=" stroke:none;fill-rule:nonzero;fill:rgb(1.960784%,29.803922%,41.176471%);fill-opacity:1;" fill-rule="evenodd"  d="M 6.65625 18.328125 C 6.925781 18.5625 7.101562 18.824219 7.140625 19.179688 C 7.15625 19.519531 7.125 19.761719 6.949219 20.054688 C 6.886719 20.164062 6.832031 20.265625 6.796875 20.390625 C 6.832031 20.480469 6.832031 20.480469 6.902344 20.554688 C 7.132812 20.828125 7.152344 21.085938 7.144531 21.433594 C 7.101562 21.820312 6.929688 22.121094 6.632812 22.367188 C 6.277344 22.625 5.90625 22.625 5.484375 22.59375 C 5.132812 22.53125 4.859375 22.304688 4.660156 22.015625 C 4.5 21.734375 4.441406 21.464844 4.5 21.140625 C 4.574219 21.015625 4.574219 21.015625 4.6875 20.953125 C 4.867188 20.925781 4.96875 20.925781 5.125 21.019531 C 5.21875 21.164062 5.238281 21.289062 5.265625 21.460938 C 5.3125 21.617188 5.410156 21.695312 5.53125 21.796875 C 5.554688 21.820312 5.554688 21.820312 5.578125 21.84375 C 5.835938 21.859375 6.015625 21.855469 6.234375 21.703125 C 6.359375 21.515625 6.40625 21.367188 6.375 21.140625 C 6.277344 20.957031 6.199219 20.832031 6 20.765625 C 5.957031 20.757812 5.957031 20.757812 5.910156 20.746094 C 5.738281 20.710938 5.640625 20.6875 5.503906 20.570312 C 5.414062 20.394531 5.429688 20.296875 5.484375 20.109375 C 5.597656 19.972656 5.714844 19.957031 5.878906 19.929688 C 6.09375 19.882812 6.203125 19.828125 6.328125 19.640625 C 6.398438 19.417969 6.402344 19.269531 6.292969 19.058594 C 6.183594 18.933594 6.105469 18.855469 5.941406 18.828125 C 5.660156 18.816406 5.660156 18.816406 5.417969 18.941406 C 5.289062 19.089844 5.230469 19.226562 5.15625 19.40625 C 5.074219 19.5 5.074219 19.5 4.96875 19.546875 C 4.800781 19.546875 4.800781 19.546875 4.640625 19.5 C 4.503906 19.359375 4.5 19.28125 4.5 19.085938 C 4.5625 18.734375 4.785156 18.476562 5.054688 18.257812 C 5.574219 17.902344 6.15625 17.992188 6.65625 18.328125 Z M 6.65625 18.328125 "/>
<path style=" stroke:none;fill-rule:nonzero;fill:rgb(3.137255%,30.980392%,40.392157%);fill-opacity:1;" fill-rule="evenodd"  d="M 8.304688 9.808594 C 8.585938 10 8.796875 10.265625 8.90625 10.59375 C 9.050781 11.671875 8.140625 12.59375 7.546875 13.40625 C 7.605469 13.40625 7.605469 13.40625 7.664062 13.40625 C 7.839844 13.410156 8.011719 13.410156 8.1875 13.414062 C 8.25 13.414062 8.308594 13.414062 8.371094 13.414062 C 8.429688 13.417969 8.488281 13.417969 8.550781 13.421875 C 8.601562 13.421875 8.65625 13.421875 8.710938 13.421875 C 8.902344 13.460938 8.976562 13.535156 9.09375 13.6875 C 9.101562 13.878906 9.085938 13.972656 8.957031 14.117188 C 8.753906 14.238281 8.582031 14.230469 8.347656 14.226562 C 8.304688 14.226562 8.257812 14.226562 8.210938 14.230469 C 8.117188 14.230469 8.023438 14.226562 7.929688 14.226562 C 7.785156 14.226562 7.640625 14.226562 7.496094 14.230469 C 7.40625 14.230469 7.3125 14.226562 7.21875 14.226562 C 7.15625 14.230469 7.15625 14.230469 7.089844 14.230469 C 6.824219 14.226562 6.671875 14.191406 6.46875 14.015625 C 6.402344 13.882812 6.40625 13.789062 6.421875 13.640625 C 6.484375 13.535156 6.539062 13.445312 6.617188 13.351562 C 6.644531 13.308594 6.644531 13.308594 6.679688 13.265625 C 6.722656 13.207031 6.769531 13.144531 6.816406 13.082031 C 6.953125 12.902344 7.085938 12.722656 7.21875 12.542969 C 7.246094 12.503906 7.273438 12.464844 7.304688 12.429688 C 7.476562 12.191406 7.648438 11.953125 7.8125 11.707031 C 7.839844 11.667969 7.839844 11.667969 7.871094 11.625 C 8.039062 11.367188 8.203125 11.097656 8.15625 10.78125 C 8.054688 10.59375 7.976562 10.484375 7.78125 10.40625 C 7.582031 10.375 7.414062 10.378906 7.230469 10.46875 C 7.101562 10.621094 7.023438 10.78125 6.941406 10.960938 C 6.890625 11.0625 6.890625 11.0625 6.796875 11.109375 C 6.605469 11.128906 6.507812 11.140625 6.351562 11.019531 C 6.25 10.8125 6.261719 10.667969 6.328125 10.453125 C 6.507812 10.082031 6.789062 9.824219 7.167969 9.664062 C 7.5625 9.53125 7.949219 9.605469 8.304688 9.808594 Z M 8.304688 9.808594 "/>
<path style=" stroke:none;fill-rule:nonzero;fill:rgb(90.588235%,96.078431%,98.039216%);fill-opacity:1;" fill-rule="evenodd"  d="M 7.050781 4.046875 C 7.109375 4.046875 7.167969 4.046875 7.230469 4.046875 C 7.296875 4.046875 7.363281 4.046875 7.429688 4.046875 C 7.5 4.046875 7.570312 4.046875 7.640625 4.046875 C 7.832031 4.046875 8.023438 4.046875 8.214844 4.046875 C 8.414062 4.046875 8.613281 4.046875 8.8125 4.046875 C 9.148438 4.046875 9.484375 4.046875 9.820312 4.046875 C 10.207031 4.050781 10.59375 4.046875 10.980469 4.046875 C 11.3125 4.046875 11.648438 4.046875 11.980469 4.046875 C 12.179688 4.046875 12.378906 4.046875 12.574219 4.046875 C 12.761719 4.046875 12.949219 4.046875 13.136719 4.046875 C 13.207031 4.046875 13.273438 4.046875 13.34375 4.046875 C 13.4375 4.046875 13.53125 4.046875 13.621094 4.046875 C 13.675781 4.046875 13.726562 4.046875 13.78125 4.046875 C 13.96875 4.085938 14.039062 4.167969 14.15625 4.3125 C 14.1875 4.453125 14.1875 4.453125 14.15625 4.59375 C 14.039062 4.738281 13.96875 4.820312 13.78125 4.859375 C 13.730469 4.859375 13.675781 4.859375 13.621094 4.859375 C 13.5625 4.859375 13.503906 4.859375 13.441406 4.859375 C 13.375 4.859375 13.308594 4.859375 13.242188 4.859375 C 13.171875 4.859375 13.101562 4.859375 13.03125 4.859375 C 12.839844 4.859375 12.648438 4.859375 12.457031 4.859375 C 12.257812 4.859375 12.058594 4.859375 11.859375 4.859375 C 11.523438 4.859375 11.1875 4.859375 10.851562 4.859375 C 10.464844 4.855469 10.078125 4.859375 9.691406 4.859375 C 9.359375 4.859375 9.023438 4.859375 8.691406 4.859375 C 8.492188 4.859375 8.292969 4.859375 8.097656 4.859375 C 7.910156 4.859375 7.722656 4.859375 7.535156 4.859375 C 7.464844 4.859375 7.398438 4.859375 7.328125 4.859375 C 7.234375 4.859375 7.140625 4.859375 7.050781 4.859375 C 6.996094 4.859375 6.945312 4.859375 6.890625 4.859375 C 6.703125 4.820312 6.632812 4.738281 6.515625 4.59375 C 6.488281 4.453125 6.488281 4.453125 6.515625 4.3125 C 6.683594 4.105469 6.785156 4.046875 7.050781 4.046875 Z M 7.050781 4.046875 "/>
<path style=" stroke:none;fill-rule:nonzero;fill:rgb(90.980392%,94.901961%,99.215686%);fill-opacity:1;" fill-rule="evenodd"  d="M 9.863281 20.96875 C 9.921875 20.96875 9.980469 20.96875 10.042969 20.96875 C 10.109375 20.96875 10.175781 20.96875 10.242188 20.96875 C 10.3125 20.96875 10.382812 20.96875 10.453125 20.96875 C 10.644531 20.96875 10.835938 20.96875 11.027344 20.96875 C 11.226562 20.96875 11.425781 20.96875 11.625 20.96875 C 11.960938 20.96875 12.296875 20.96875 12.632812 20.96875 C 13.019531 20.972656 13.40625 20.96875 13.792969 20.96875 C 14.125 20.96875 14.460938 20.96875 14.792969 20.96875 C 14.992188 20.96875 15.191406 20.96875 15.386719 20.96875 C 15.574219 20.96875 15.761719 20.96875 15.949219 20.96875 C 16.019531 20.96875 16.085938 20.96875 16.15625 20.96875 C 16.25 20.96875 16.34375 20.96875 16.433594 20.96875 C 16.488281 20.96875 16.539062 20.96875 16.59375 20.96875 C 16.78125 21.007812 16.851562 21.085938 16.96875 21.234375 C 16.976562 21.402344 16.976562 21.402344 16.921875 21.5625 C 16.800781 21.6875 16.722656 21.746094 16.546875 21.773438 C 16.496094 21.773438 16.445312 21.773438 16.390625 21.773438 C 16.332031 21.773438 16.273438 21.773438 16.210938 21.777344 C 16.144531 21.773438 16.082031 21.773438 16.015625 21.773438 C 15.945312 21.773438 15.875 21.773438 15.808594 21.773438 C 15.617188 21.777344 15.429688 21.777344 15.242188 21.773438 C 15.046875 21.773438 14.847656 21.773438 14.652344 21.777344 C 14.320312 21.777344 13.988281 21.773438 13.660156 21.773438 C 13.277344 21.773438 12.894531 21.773438 12.511719 21.773438 C 12.183594 21.777344 11.855469 21.777344 11.527344 21.773438 C 11.328125 21.773438 11.132812 21.773438 10.9375 21.777344 C 10.753906 21.777344 10.570312 21.777344 10.382812 21.773438 C 10.316406 21.773438 10.25 21.773438 10.183594 21.773438 C 10.089844 21.773438 9.996094 21.773438 9.90625 21.773438 C 9.828125 21.773438 9.828125 21.773438 9.75 21.773438 C 9.574219 21.746094 9.496094 21.6875 9.375 21.5625 C 9.324219 21.402344 9.324219 21.402344 9.328125 21.234375 C 9.492188 21.027344 9.597656 20.96875 9.863281 20.96875 Z M 9.863281 20.96875 "/>
<path style=" stroke:none;fill-rule:nonzero;fill:rgb(91.764706%,96.078431%,99.607843%);fill-opacity:1;" fill-rule="evenodd"  d="M 11.875 12.542969 C 11.933594 12.542969 11.996094 12.542969 12.058594 12.542969 C 12.125 12.542969 12.191406 12.542969 12.257812 12.542969 C 12.328125 12.542969 12.402344 12.542969 12.472656 12.542969 C 12.664062 12.542969 12.855469 12.542969 13.046875 12.542969 C 13.210938 12.542969 13.371094 12.542969 13.53125 12.542969 C 13.910156 12.539062 14.289062 12.542969 14.667969 12.542969 C 15.058594 12.542969 15.449219 12.542969 15.839844 12.539062 C 16.175781 12.539062 16.507812 12.539062 16.84375 12.539062 C 17.046875 12.539062 17.246094 12.539062 17.445312 12.539062 C 17.632812 12.539062 17.824219 12.539062 18.011719 12.539062 C 18.082031 12.539062 18.148438 12.539062 18.21875 12.539062 C 18.3125 12.539062 18.40625 12.539062 18.5 12.539062 C 18.582031 12.539062 18.582031 12.539062 18.660156 12.539062 C 18.828125 12.566406 18.882812 12.617188 18.984375 12.75 C 19.011719 12.929688 19.019531 13.03125 18.90625 13.179688 C 18.765625 13.289062 18.679688 13.289062 18.5 13.289062 C 18.410156 13.289062 18.410156 13.289062 18.316406 13.292969 C 18.25 13.289062 18.183594 13.289062 18.117188 13.289062 C 18.046875 13.289062 17.972656 13.289062 17.902344 13.289062 C 17.710938 13.292969 17.519531 13.292969 17.328125 13.289062 C 17.125 13.289062 16.925781 13.289062 16.722656 13.292969 C 16.382812 13.292969 16.046875 13.289062 15.707031 13.289062 C 15.316406 13.289062 14.925781 13.289062 14.535156 13.289062 C 14.199219 13.292969 13.867188 13.292969 13.53125 13.289062 C 13.328125 13.289062 13.128906 13.289062 12.929688 13.292969 C 12.742188 13.292969 12.550781 13.292969 12.363281 13.289062 C 12.292969 13.289062 12.226562 13.289062 12.15625 13.289062 C 12.0625 13.289062 11.96875 13.289062 11.875 13.289062 C 11.820312 13.289062 11.769531 13.289062 11.714844 13.289062 C 11.546875 13.261719 11.492188 13.207031 11.390625 13.078125 C 11.355469 12.9375 11.371094 12.851562 11.390625 12.703125 C 11.539062 12.546875 11.664062 12.542969 11.875 12.542969 Z M 11.875 12.542969 "/>
<path style=" stroke:none;fill-rule:nonzero;fill:rgb(2.745098%,31.372549%,40.392157%);fill-opacity:1;" fill-rule="evenodd"  d="M 2.582031 1.199219 C 2.628906 1.199219 2.675781 1.199219 2.722656 1.199219 C 3.113281 1.207031 3.113281 1.207031 3.28125 1.3125 C 3.398438 1.488281 3.386719 1.628906 3.386719 1.832031 C 3.386719 1.871094 3.386719 1.910156 3.386719 1.949219 C 3.386719 2.078125 3.386719 2.203125 3.386719 2.332031 C 3.386719 2.421875 3.386719 2.507812 3.386719 2.597656 C 3.386719 2.785156 3.386719 2.96875 3.386719 3.15625 C 3.386719 3.394531 3.386719 3.632812 3.386719 3.871094 C 3.386719 4.054688 3.386719 4.238281 3.386719 4.421875 C 3.386719 4.507812 3.386719 4.597656 3.386719 4.683594 C 3.386719 4.808594 3.386719 4.929688 3.386719 5.050781 C 3.386719 5.089844 3.386719 5.125 3.386719 5.164062 C 3.386719 5.480469 3.386719 5.480469 3.28125 5.625 C 3.117188 5.734375 3.050781 5.742188 2.859375 5.71875 C 2.75 5.632812 2.6875 5.5625 2.625 5.4375 C 2.621094 5.328125 2.621094 5.21875 2.621094 5.109375 C 2.621094 5.074219 2.621094 5.039062 2.621094 5.007812 C 2.621094 4.894531 2.621094 4.78125 2.621094 4.667969 C 2.621094 4.59375 2.621094 4.515625 2.621094 4.4375 C 2.621094 4.230469 2.621094 4.027344 2.621094 3.824219 C 2.621094 3.613281 2.621094 3.40625 2.621094 3.195312 C 2.625 2.789062 2.625 2.378906 2.625 1.96875 C 2.570312 1.96875 2.570312 1.96875 2.515625 1.972656 C 2.472656 1.972656 2.425781 1.972656 2.375 1.972656 C 2.308594 1.972656 2.308594 1.972656 2.238281 1.976562 C 2.109375 1.96875 2.109375 1.96875 1.960938 1.894531 C 1.84375 1.742188 1.820312 1.648438 1.828125 1.453125 C 2.027344 1.160156 2.257812 1.1875 2.582031 1.199219 Z M 2.582031 1.199219 "/>
<path style=" stroke:none;fill-rule:nonzero;fill:rgb(3.529412%,32.54902%,40.784314%);fill-opacity:1;" fill-rule="evenodd"  d="M 4.40625 5.03125 C 4.597656 5.074219 4.667969 5.136719 4.78125 5.296875 C 4.78125 5.460938 4.765625 5.570312 4.679688 5.710938 C 4.539062 5.796875 4.429688 5.8125 4.265625 5.8125 C 4.105469 5.699219 4.042969 5.628906 4 5.4375 C 4.050781 5.203125 4.171875 5.082031 4.40625 5.03125 Z M 4.40625 5.03125 "/>
<path style=" stroke:none;fill-rule:nonzero;fill:rgb(3.137255%,30.196078%,41.960784%);fill-opacity:1;" fill-rule="evenodd"  d="M 7.828125 21.984375 C 7.960938 22.058594 7.960938 22.058594 8.0625 22.171875 C 8.09375 22.355469 8.089844 22.453125 7.992188 22.613281 C 7.851562 22.703125 7.753906 22.71875 7.589844 22.707031 C 7.5 22.6875 7.5 22.6875 7.378906 22.589844 C 7.292969 22.410156 7.304688 22.316406 7.359375 22.125 C 7.496094 21.96875 7.625 21.957031 7.828125 21.984375 Z M 7.828125 21.984375 "/>
<path style=" stroke:none;fill-rule:nonzero;fill:rgb(4.313725%,31.764706%,40.392157%);fill-opacity:1;" fill-rule="evenodd"  d="M 9.847656 13.527344 C 9.9375 13.546875 9.9375 13.546875 10.058594 13.648438 C 10.140625 13.8125 10.132812 13.886719 10.078125 14.0625 C 9.984375 14.203125 9.984375 14.203125 9.890625 14.234375 C 9.59375 14.269531 9.59375 14.269531 9.441406 14.179688 C 9.351562 14.019531 9.347656 13.917969 9.375 13.734375 C 9.496094 13.539062 9.632812 13.515625 9.847656 13.527344 Z M 9.847656 13.527344 "/>
</g>
</svg>
